Coordinates
version=1
nRows=34
nColumns=38
inDegrees=no

Units are S.I. units (second, meters, Newtons, ...)
If the header above contains a line with 'inDegrees', this indicates whether rotational values are in degrees (yes) or radians (no).

endheader
time	pelvis_tilt	pelvis_list	pelvis_rotation	pelvis_tx	pelvis_ty	pelvis_tz	hip_flexion_r	hip_adduction_r	hip_rotation_r	knee_angle_r	ankle_angle_r	subtalar_angle_r	mtp_angle_r	hip_flexion_l	hip_adduction_l	hip_rotation_l	knee_angle_l	ankle_angle_l	subtalar_angle_l	mtp_angle_l	lumbar_extension	lumbar_bending	lumbar_rotation	arm_flex_r	arm_add_r	arm_rot_r	elbow_flex_r	pro_sup_r	wrist_flex_r	wrist_dev_r	arm_flex_l	arm_add_l	arm_rot_l	elbow_flex_l	pro_sup_l	wrist_flex_l	wrist_dev_l
1.11	-3.09311	1.1088	1.53804	0.712783	0.398835	0.99586	0.329579	-0.0539508	-0.0431549	0.768725	-0.479168	0	0	0.753698	-0.00488769	-0.0359708	0.272151	-0.222651	0	0	0.483079	-0.0489387	0.0255088	-0.0758889	-0.282792	0.428346	0.548335	1.5708	0	0	-0.309078	-0.29279	0.513059	0.433994	0.837754	0	0
1.12	-3.10389	1.11637	1.54556	0.713965	0.385722	0.997283	0.350572	-0.0614114	-0.0350027	0.818476	-0.523055	0	0	0.73928	-0.000159329	-0.0373556	0.290589	-0.201204	0	0	0.471547	-0.0532104	0.0274577	-0.0749705	-0.276291	0.436986	0.531377	1.5708	0	0	-0.298434	-0.296768	0.524279	0.436416	0.834286	0	0
1.13	-3.11361	1.12363	1.54949	0.714909	0.372656	0.998948	0.37288	-0.0674038	-0.0276815	0.866985	-0.543069	0	0	0.721796	0.0024915	-0.0412747	0.302704	-0.18346	0	0	0.460494	-0.0552851	0.0312746	-0.0735164	-0.26962	0.44663	0.512723	1.5708	0	0	-0.28681	-0.299985	0.53518	0.438112	0.83412	0	0
1.14	-3.1213	1.13032	1.54923	0.715654	0.359608	1.00086	0.395888	-0.0714496	-0.0196939	0.9136	-0.537767	0	0	0.701821	0.00304716	-0.0483046	0.308795	-0.166904	0	0	0.450798	-0.0549078	0.0357314	-0.0717504	-0.263009	0.45643	0.493298	1.5708	0	0	-0.274971	-0.301941	0.545341	0.438589	0.836129	0	0
1.15	-3.12524	1.13611	1.54391	0.716196	0.346684	1.00293	0.419703	-0.0731326	-0.0120667	0.958769	-0.504988	0	0	0.680706	0.00127061	-0.0569819	0.310238	-0.151749	0	0	0.442793	-0.0516222	0.0396775	-0.0697148	-0.256926	0.466863	0.473905	1.5708	0	0	-0.263234	-0.302654	0.555074	0.438121	0.841747	0	0
1.16	-3.12563	1.14056	1.53532	0.716694	0.333855	1.00507	0.444651	-0.0731609	-0.00624229	1.00275	-0.455587	0	0	0.659651	-0.00172578	-0.0657695	0.308145	-0.140262	0	0	0.437067	-0.0462513	0.0422872	-0.0685674	-0.251528	0.475997	0.455676	1.5708	0	0	-0.252806	-0.302927	0.562581	0.438936	0.852231	0	0
1.17	-3.1241	1.14351	1.52573	0.717217	0.321062	1.00726	0.470906	-0.0725954	-0.00286511	1.04443	-0.4001	0	0	0.639299	-0.00523268	-0.0756788	0.303383	-0.131844	0	0	0.433975	-0.0399404	0.0434091	-0.0687029	-0.246872	0.483968	0.438916	1.5708	0	0	-0.244171	-0.303052	0.566333	0.441623	0.866853	0	0
1.18	-3.12101	1.14482	1.51623	0.717837	0.308315	1.00951	0.498255	-0.0718308	-0.00250642	1.08167	-0.347747	0	0	0.62016	-0.00886519	-0.0860404	0.296225	-0.126873	0	0	0.433605	-0.0334012	0.0425711	-0.0700905	-0.243466	0.494337	0.424103	1.5708	0	0	-0.237231	-0.302936	0.565522	0.445952	0.884988	0	0
1.19	-3.11343	1.14518	1.50557	0.71871	0.295846	1.01181	0.52555	-0.0702763	-0.00603811	1.113	-0.302279	0	0	0.60267	-0.0128694	-0.0935801	0.288555	-0.124638	0	0	0.433857	-0.0260625	0.0381226	-0.0721294	-0.242068	0.507365	0.412367	1.5708	0	0	-0.231151	-0.302553	0.559905	0.452556	0.906179	0	0
1.2	-3.0992	1.14588	1.49332	0.720003	0.28386	1.01421	0.551141	-0.0679326	-0.0141392	1.13755	-0.267593	0	0	0.586331	-0.0171203	-0.0963942	0.281772	-0.124062	0	0	0.431955	-0.0177585	0.0289092	-0.074454	-0.242625	0.517759	0.404784	1.5708	0	0	-0.223882	-0.302108	0.552674	0.461282	0.926919	0	0
1.21	-3.08669	1.14728	1.48268	0.721329	0.271757	1.0168	0.574831	-0.0658843	-0.0205943	1.15502	-0.235835	0	0	0.568632	-0.020528	-0.0997684	0.274427	-0.123818	0	0	0.42989	-0.0102582	0.0201169	-0.0772607	-0.243502	0.526942	0.398062	1.5708	0	0	-0.217706	-0.301544	0.541388	0.47162	0.949766	0	0
1.22	-3.07713	1.14973	1.47333	0.722521	0.259629	1.0195	0.596839	-0.0638371	-0.0247297	1.16621	-0.20652	0	0	0.549094	-0.0232142	-0.106069	0.266729	-0.124721	0	0	0.427084	-0.00360828	0.0132342	-0.0802054	-0.244434	0.534711	0.392085	1.5708	0	0	-0.212436	-0.300938	0.526251	0.483538	0.974043	0	0
1.23	-3.06753	1.15084	1.46465	0.723645	0.2475	1.0221	0.61914	-0.0617188	-0.03034	1.17171	-0.178638	0	0	0.53055	-0.0254531	-0.111997	0.258848	-0.127142	0	0	0.426334	0.00257459	0.00579994	-0.0843175	-0.245845	0.542876	0.387733	1.5708	0	0	-0.209129	-0.300648	0.507349	0.497921	0.99912	0	0
1.24	-3.05812	1.15049	1.45647	0.72468	0.235411	1.02454	0.641941	-0.0594521	-0.0370129	1.17206	-0.150224	0	0	0.513088	-0.027473	-0.116295	0.250378	-0.130168	0	0	0.427579	0.00841429	-0.00233883	-0.0886706	-0.247372	0.552496	0.383793	1.5708	0	0	-0.208208	-0.299383	0.480389	0.513932	1.0283	0	0
1.25	-3.04899	1.15003	1.44807	0.725611	0.223347	1.02691	0.663872	-0.0567007	-0.0429602	1.16716	-0.129839	0	0	0.495147	-0.0296554	-0.119663	0.240601	-0.13291	0	0	0.428532	0.0143319	-0.00937869	-0.0937275	-0.248734	0.557087	0.380971	1.5708	0	0	-0.205925	-0.299648	0.461998	0.530365	1.04823	0	0
1.26	-3.03948	1.14902	1.43912	0.726451	0.211413	1.02908	0.685574	-0.0530267	-0.0482613	1.1585	-0.106432	0	0	0.477953	-0.0325551	-0.124351	0.230524	-0.136833	0	0	0.4296	0.0204128	-0.016799	-0.0982376	-0.250366	0.562429	0.378665	1.5708	0	0	-0.205086	-0.29873	0.437022	0.547875	1.07236	0	0
1.27	-3.0293	1.14767	1.42964	0.727243	0.199614	1.03105	0.706393	-0.0483892	-0.0536356	1.14554	-0.0855878	0	0	0.46127	-0.0361592	-0.129709	0.220108	-0.141508	0	0	0.430199	0.0266984	-0.024338	-0.102335	-0.252331	0.568244	0.377163	1.5708	0	0	-0.204392	-0.29768	0.411531	0.566647	1.09518	0	0
1.28	-3.0192	1.14571	1.42046	0.727995	0.1879	1.03276	0.726217	-0.043364	-0.0586636	1.12692	-0.0684114	0	0	0.445251	-0.0399775	-0.134762	0.209384	-0.14605	0	0	0.430843	0.0329476	-0.0317686	-0.106261	-0.254162	0.572109	0.37589	1.5708	0	0	-0.203132	-0.297496	0.390542	0.586383	1.11266	0	0
1.29	-3.00986	1.14184	1.41304	0.728748	0.176179	1.0341	0.746316	-0.0385129	-0.0641441	1.10242	-0.0516215	0	0	0.431202	-0.0434923	-0.138998	0.198272	-0.151069	0	0	0.433899	0.0386407	-0.0401946	-0.11065	-0.255729	0.574543	0.374684	1.5708	0	0	-0.202807	-0.297398	0.369743	0.606748	1.13019	0	0
1.3	-3.00106	1.13619	1.40721	0.729508	0.164391	1.03508	0.76635	-0.0338723	-0.0704141	1.07207	-0.0372589	0	0	0.418902	-0.0466844	-0.14264	0.186899	-0.156479	0	0	0.439468	0.0438537	-0.0496269	-0.115691	-0.257061	0.575899	0.373536	1.5708	0	0	-0.203527	-0.297415	0.349464	0.627803	1.14682	0	0
1.31	-2.99422	1.13184	1.40204	0.730109	0.152739	1.03593	0.784102	-0.0287499	-0.0743371	1.03699	-0.0264361	0	0	0.405127	-0.0491797	-0.146233	0.175324	-0.161734	0	0	0.442818	0.0485647	-0.0572402	-0.119558	-0.257929	0.576361	0.37188	1.5708	0	0	-0.203074	-0.297737	0.330868	0.648894	1.16287	0	0
1.32	-2.98838	1.12802	1.39771	0.730649	0.141218	1.0365	0.800046	-0.0236348	-0.0771604	0.997379	-0.0188447	0	0	0.390925	-0.0512009	-0.150372	0.164097	-0.166095	0	0	0.444974	0.0528418	-0.0639822	-0.122991	-0.258347	0.573985	0.370195	1.5708	0	0	-0.201391	-0.298481	0.314726	0.669871	1.17923	0	0
1.33	-2.98321	1.12316	1.39521	0.731225	0.129771	1.03668	0.815077	-0.0191528	-0.0806062	0.953089	-0.0134268	0	0	0.378325	-0.0528139	-0.15458	0.153702	-0.169523	0	0	0.448295	0.0564899	-0.071044	-0.126913	-0.25823	0.567946	0.368565	1.5708	0	0	-0.19967	-0.299991	0.300796	0.691726	1.19573	0	0
1.34	-2.97946	1.11765	1.39468	0.731808	0.118337	1.03651	0.828814	-0.0153719	-0.0841302	0.903879	-0.0105695	0	0	0.366978	-0.053809	-0.158889	0.144304	-0.171388	0	0	0.452501	0.0593922	-0.0778223	-0.130929	-0.257502	0.560133	0.366293	1.5708	0	0	-0.197762	-0.302073	0.288923	0.713912	1.21124	0	0
1.35	-2.97663	1.11285	1.39569	0.7324	0.106827	1.03608	0.839574	-0.012251	-0.086983	0.850181	-0.0101888	0	0	0.355255	-0.0542231	-0.163012	0.135631	-0.172838	0	0	0.455727	0.0614242	-0.084287	-0.134719	-0.256399	0.552335	0.363671	1.5708	0	0	-0.195267	-0.304789	0.279001	0.73633	1.22629	0	0
1.36	-2.97438	1.10902	1.39761	0.732942	0.0952099	1.03542	0.846837	-0.00949129	-0.0890438	0.791495	-0.0117466	0	0	0.343032	-0.0543648	-0.166618	0.128336	-0.173951	0	0	0.457713	0.0627854	-0.0905423	-0.138021	-0.25499	0.545083	0.360677	1.5708	0	0	-0.192435	-0.308003	0.270469	0.758862	1.24112	0	0
1.37	-2.97282	1.10555	1.40066	0.733482	0.0835143	1.0345	0.85107	-0.00728312	-0.0907117	0.727402	-0.0154547	0	0	0.330841	-0.0542155	-0.169528	0.121665	-0.174347	0	0	0.459391	0.0635892	-0.0969793	-0.140728	-0.253256	0.537462	0.356943	1.5708	0	0	-0.189584	-0.31137	0.262824	0.781212	1.25529	0	0
1.38	-2.97186	1.10255	1.40465	0.734019	0.0717514	1.0333	0.852172	-0.00558259	-0.0917278	0.658123	-0.0227781	0	0	0.318639	-0.053802	-0.172186	0.115827	-0.174021	0	0	0.46047	0.0638794	-0.103267	-0.142959	-0.251447	0.530472	0.352819	1.5708	0	0	-0.186478	-0.314745	0.255808	0.803264	1.26884	0	0
1.39	-2.97148	1.09995	1.40917	0.734506	0.0598831	1.0318	0.850176	-0.00407945	-0.0921006	0.583177	-0.0358945	0	0	0.306243	-0.0532043	-0.173904	0.110726	-0.172681	0	0	0.461249	0.0637547	-0.109225	-0.144506	-0.249138	0.523185	0.347546	1.5708	0	0	-0.183665	-0.317679	0.247761	0.825175	1.28395	0	0
1.4	-2.9723	1.09765	1.41502	0.734965	0.0478752	1.02999	0.845652	-0.0033448	-0.0928104	0.503671	-0.0516644	0	0	0.293954	-0.0520258	-0.175616	0.106409	-0.169835	0	0	0.462121	0.0628802	-0.115072	-0.145596	-0.246825	0.517975	0.34165	1.5708	0	0	-0.181106	-0.321202	0.241414	0.847034	1.29724	0	0
1.41	-2.97413	1.09556	1.42267	0.735444	0.0357094	1.02785	0.839423	-0.0038594	-0.0951319	0.422029	-0.0708508	0	0	0.281712	-0.0502081	-0.176568	0.102582	-0.166254	0	0	0.4631	0.0610532	-0.121222	-0.146532	-0.244739	0.514765	0.335743	1.5708	0	0	-0.178621	-0.325179	0.236503	0.868807	1.30903	0	0
1.42	-2.97625	1.09429	1.43153	0.73592	0.0234176	1.02545	0.831656	-0.00522999	-0.0996106	0.340426	-0.092318	0	0	0.269146	-0.0479659	-0.176265	0.0999792	-0.161871	0	0	0.463123	0.0584396	-0.127867	-0.146905	-0.242815	0.513326	0.329902	1.5708	0	0	-0.176186	-0.329109	0.231317	0.890497	1.31947	0	0
1.43	-2.97929	1.09398	1.44225	0.736426	0.0110324	1.02278	0.823031	-0.00781959	-0.106044	0.261024	-0.114327	0	0	0.255766	-0.0450053	-0.174346	0.0979202	-0.157011	0	0	0.46193	0.0547718	-0.135079	-0.146433	-0.241073	0.513762	0.324	1.5708	0	0	-0.173785	-0.333214	0.226339	0.912146	1.32868	0	0
1.44	-2.98697	1.09327	1.45677	0.736914	-0.00156761	1.01981	0.815712	-0.0118366	-0.111838	0.185862	-0.133989	0	0	0.242677	-0.0400891	-0.174202	0.0959133	-0.152475	0	0	0.461852	0.0491734	-0.141063	-0.146276	-0.239581	0.515329	0.318427	1.5708	0	0	-0.172229	-0.337712	0.222004	0.933628	1.33622	0	0
